<mxfile host="app.diagrams.net" modified="2020-08-20T20:21:17.162Z" agent="5.0 (Windows NT 10.0; Win64; x64) AppleWebKit/537.36 (KHTML, like Gecko) Chrome/84.0.4147.125 Safari/537.36" etag="w1wE3BZDFqn3pCbR4lU1" version="13.6.4" type="github">
  <diagram id="Z3SUOvgA0qH0jcRV_NoC" name="General">
    <mxGraphModel dx="1718" dy="482" grid="1" gridSize="10" guides="1" tooltips="1" connect="1" arrows="1" fold="1" page="1" pageScale="1" pageWidth="850" pageHeight="1100" math="0" shadow="0">
      <root>
        <mxCell id="0" />
        <mxCell id="1" parent="0" />
        <mxCell id="4XaMbFRDXjhc7i4ORzib-2" value="Usuarios" style="rounded=0;whiteSpace=wrap;html=1;fillColor=#d80073;strokeColor=#A50040;fontColor=#ffffff;fontStyle=1" parent="1" vertex="1">
          <mxGeometry x="590" y="110" width="110" height="40" as="geometry" />
        </mxCell>
        <mxCell id="b8lKw-kGKd8MyjRBLvb2-25" value="Roles" style="rounded=0;whiteSpace=wrap;html=1;fillColor=#d80073;strokeColor=#A50040;fontColor=#ffffff;fontStyle=1" parent="1" vertex="1">
          <mxGeometry x="580" y="5" width="110" height="40" as="geometry" />
        </mxCell>
        <mxCell id="b8lKw-kGKd8MyjRBLvb2-35" value="Personas" style="rounded=0;whiteSpace=wrap;html=1;fillColor=#d80073;strokeColor=#A50040;fontColor=#ffffff;fontStyle=1" parent="1" vertex="1">
          <mxGeometry x="570" y="240" width="110" height="40" as="geometry" />
        </mxCell>
        <mxCell id="b8lKw-kGKd8MyjRBLvb2-42" value="" style="group" parent="1" vertex="1" connectable="0">
          <mxGeometry x="740" y="45" width="20" height="10" as="geometry" />
        </mxCell>
        <mxCell id="b8lKw-kGKd8MyjRBLvb2-43" value="cod_rol" style="text;html=1;strokeColor=none;fillColor=none;align=center;verticalAlign=middle;whiteSpace=wrap;rounded=0;" parent="1" vertex="1">
          <mxGeometry x="770" y="40" width="40" height="20" as="geometry" />
        </mxCell>
        <mxCell id="b8lKw-kGKd8MyjRBLvb2-80" value="" style="edgeStyle=none;rounded=0;sketch=0;orthogonalLoop=1;jettySize=auto;html=1;shadow=0;endArrow=none;endFill=0;fontSize=10;" parent="1" source="b8lKw-kGKd8MyjRBLvb2-44" target="b8lKw-kGKd8MyjRBLvb2-25" edge="1">
          <mxGeometry relative="1" as="geometry" />
        </mxCell>
        <mxCell id="b8lKw-kGKd8MyjRBLvb2-44" value="" style="ellipse;whiteSpace=wrap;html=1;strokeColor=#A50040;fontColor=#ffffff;fillColor=#FFFFFF;" parent="1" vertex="1">
          <mxGeometry x="740" y="60" width="20" height="10" as="geometry" />
        </mxCell>
        <mxCell id="b8lKw-kGKd8MyjRBLvb2-46" value="nom_rol" style="text;html=1;strokeColor=none;fillColor=none;align=center;verticalAlign=middle;whiteSpace=wrap;rounded=0;" parent="1" vertex="1">
          <mxGeometry x="770" y="55" width="40" height="20" as="geometry" />
        </mxCell>
        <mxCell id="GyppBiyQgEA9VhqEIzXW-10" style="edgeStyle=orthogonalEdgeStyle;rounded=0;orthogonalLoop=1;jettySize=auto;html=1;exitX=0.5;exitY=1;exitDx=0;exitDy=0;entryX=0.75;entryY=0;entryDx=0;entryDy=0;" edge="1" parent="1" source="b8lKw-kGKd8MyjRBLvb2-47" target="GyppBiyQgEA9VhqEIzXW-7">
          <mxGeometry relative="1" as="geometry" />
        </mxCell>
        <mxCell id="b8lKw-kGKd8MyjRBLvb2-47" value="Docentes" style="rounded=0;whiteSpace=wrap;html=1;fillColor=#d80073;strokeColor=#A50040;fontColor=#ffffff;fontStyle=1" parent="1" vertex="1">
          <mxGeometry x="410" y="360" width="110" height="40" as="geometry" />
        </mxCell>
        <mxCell id="GyppBiyQgEA9VhqEIzXW-22" style="edgeStyle=orthogonalEdgeStyle;rounded=0;orthogonalLoop=1;jettySize=auto;html=1;entryX=1;entryY=0.5;entryDx=0;entryDy=0;fontSize=11;fontColor=#CC0000;exitX=0.5;exitY=1;exitDx=0;exitDy=0;" edge="1" parent="1" source="b8lKw-kGKd8MyjRBLvb2-48" target="GyppBiyQgEA9VhqEIzXW-19">
          <mxGeometry relative="1" as="geometry" />
        </mxCell>
        <mxCell id="b8lKw-kGKd8MyjRBLvb2-48" value="Alumnos" style="rounded=0;whiteSpace=wrap;html=1;fillColor=#d80073;strokeColor=#A50040;fontColor=#ffffff;fontStyle=1" parent="1" vertex="1">
          <mxGeometry x="530" y="510" width="110" height="40" as="geometry" />
        </mxCell>
        <mxCell id="b8lKw-kGKd8MyjRBLvb2-49" value="Directores" style="rounded=0;whiteSpace=wrap;html=1;fillColor=#d80073;strokeColor=#A50040;fontColor=#ffffff;fontStyle=1" parent="1" vertex="1">
          <mxGeometry x="880" y="30" width="110" height="40" as="geometry" />
        </mxCell>
        <mxCell id="b8lKw-kGKd8MyjRBLvb2-79" value="" style="rounded=0;orthogonalLoop=1;jettySize=auto;html=1;fontSize=10;sketch=0;shadow=0;endArrow=none;endFill=0;" parent="1" source="b8lKw-kGKd8MyjRBLvb2-52" target="b8lKw-kGKd8MyjRBLvb2-25" edge="1">
          <mxGeometry relative="1" as="geometry" />
        </mxCell>
        <mxCell id="b8lKw-kGKd8MyjRBLvb2-52" value="" style="ellipse;whiteSpace=wrap;html=1;strokeColor=#A50040;fontColor=#ffffff;fillColor=#d80073;" parent="1" vertex="1">
          <mxGeometry x="740" y="45" width="20" height="10" as="geometry" />
        </mxCell>
        <mxCell id="b8lKw-kGKd8MyjRBLvb2-61" value="id_usuario" style="text;html=1;strokeColor=none;fillColor=none;align=center;verticalAlign=middle;whiteSpace=wrap;rounded=0;" parent="1" vertex="1">
          <mxGeometry x="764" y="90" width="60" height="20" as="geometry" />
        </mxCell>
        <mxCell id="b8lKw-kGKd8MyjRBLvb2-63" value="" style="ellipse;whiteSpace=wrap;html=1;strokeColor=#A50040;fontColor=#ffffff;fillColor=#FFFFFF;" parent="1" vertex="1">
          <mxGeometry x="745" y="135" width="20" height="10" as="geometry" />
        </mxCell>
        <mxCell id="NR2YaWxbIULWB_psVSaY-26" style="edgeStyle=orthogonalEdgeStyle;rounded=0;orthogonalLoop=1;jettySize=auto;html=1;entryX=1;entryY=0.5;entryDx=0;entryDy=0;fontSize=12;" parent="1" source="b8lKw-kGKd8MyjRBLvb2-65" target="NR2YaWxbIULWB_psVSaY-25" edge="1">
          <mxGeometry relative="1" as="geometry" />
        </mxCell>
        <mxCell id="GyppBiyQgEA9VhqEIzXW-9" style="edgeStyle=orthogonalEdgeStyle;rounded=0;orthogonalLoop=1;jettySize=auto;html=1;exitX=0.5;exitY=1;exitDx=0;exitDy=0;entryX=0.5;entryY=0;entryDx=0;entryDy=0;" edge="1" parent="1" source="b8lKw-kGKd8MyjRBLvb2-65" target="GyppBiyQgEA9VhqEIzXW-7">
          <mxGeometry relative="1" as="geometry" />
        </mxCell>
        <mxCell id="b8lKw-kGKd8MyjRBLvb2-65" value="Materias" style="rounded=0;whiteSpace=wrap;html=1;fillColor=#d80073;strokeColor=#A50040;fontColor=#ffffff;fontStyle=1" parent="1" vertex="1">
          <mxGeometry x="230" y="310" width="110" height="40" as="geometry" />
        </mxCell>
        <mxCell id="NR2YaWxbIULWB_psVSaY-22" style="edgeStyle=orthogonalEdgeStyle;rounded=0;orthogonalLoop=1;jettySize=auto;html=1;exitX=0.5;exitY=1;exitDx=0;exitDy=0;entryX=0.5;entryY=0;entryDx=0;entryDy=0;fontSize=12;" parent="1" source="b8lKw-kGKd8MyjRBLvb2-66" target="NR2YaWxbIULWB_psVSaY-19" edge="1">
          <mxGeometry relative="1" as="geometry" />
        </mxCell>
        <mxCell id="b8lKw-kGKd8MyjRBLvb2-66" value="Periodos" style="rounded=0;whiteSpace=wrap;html=1;fillColor=#d80073;strokeColor=#A50040;fontColor=#ffffff;fontStyle=1" parent="1" vertex="1">
          <mxGeometry x="80" y="310" width="110" height="40" as="geometry" />
        </mxCell>
        <mxCell id="b8lKw-kGKd8MyjRBLvb2-68" value="Materias relacionadas al año (periodos) de bachillerato y grado" style="text;html=1;strokeColor=none;fillColor=none;align=center;verticalAlign=middle;whiteSpace=wrap;rounded=0;" parent="1" vertex="1">
          <mxGeometry x="340" y="100" width="170" height="20" as="geometry" />
        </mxCell>
        <mxCell id="b8lKw-kGKd8MyjRBLvb2-72" value="Año escolar" style="text;html=1;strokeColor=none;fillColor=none;align=center;verticalAlign=middle;whiteSpace=wrap;rounded=0;" parent="1" vertex="1">
          <mxGeometry x="105" y="280" width="40" height="20" as="geometry" />
        </mxCell>
        <mxCell id="GyppBiyQgEA9VhqEIzXW-6" style="edgeStyle=orthogonalEdgeStyle;rounded=0;orthogonalLoop=1;jettySize=auto;html=1;exitX=1;exitY=0.5;exitDx=0;exitDy=0;entryX=0;entryY=0.5;entryDx=0;entryDy=0;" edge="1" parent="1" source="b8lKw-kGKd8MyjRBLvb2-74" target="NR2YaWxbIULWB_psVSaY-3">
          <mxGeometry relative="1" as="geometry" />
        </mxCell>
        <mxCell id="b8lKw-kGKd8MyjRBLvb2-74" value="Secciones" style="rounded=0;whiteSpace=wrap;html=1;fillColor=#d80073;strokeColor=#A50040;fontColor=#ffffff;fontStyle=1" parent="1" vertex="1">
          <mxGeometry x="-80" y="580" width="110" height="40" as="geometry" />
        </mxCell>
        <mxCell id="NR2YaWxbIULWB_psVSaY-20" style="edgeStyle=orthogonalEdgeStyle;rounded=0;orthogonalLoop=1;jettySize=auto;html=1;exitX=0.5;exitY=1;exitDx=0;exitDy=0;entryX=0;entryY=0.5;entryDx=0;entryDy=0;fontSize=12;" parent="1" source="b8lKw-kGKd8MyjRBLvb2-75" target="NR2YaWxbIULWB_psVSaY-19" edge="1">
          <mxGeometry relative="1" as="geometry" />
        </mxCell>
        <mxCell id="GyppBiyQgEA9VhqEIzXW-1" style="edgeStyle=orthogonalEdgeStyle;rounded=0;orthogonalLoop=1;jettySize=auto;html=1;exitX=0.25;exitY=1;exitDx=0;exitDy=0;entryX=0.25;entryY=0;entryDx=0;entryDy=0;" parent="1" source="b8lKw-kGKd8MyjRBLvb2-75" target="b8lKw-kGKd8MyjRBLvb2-74" edge="1">
          <mxGeometry relative="1" as="geometry" />
        </mxCell>
        <mxCell id="b8lKw-kGKd8MyjRBLvb2-75" value="Grados" style="rounded=0;whiteSpace=wrap;html=1;fillColor=#d80073;strokeColor=#A50040;fontColor=#ffffff;fontStyle=1" parent="1" vertex="1">
          <mxGeometry x="-80" y="280" width="110" height="40" as="geometry" />
        </mxCell>
        <mxCell id="NR2YaWxbIULWB_psVSaY-11" style="edgeStyle=orthogonalEdgeStyle;rounded=0;orthogonalLoop=1;jettySize=auto;html=1;entryX=0.5;entryY=0;entryDx=0;entryDy=0;" parent="1" source="b8lKw-kGKd8MyjRBLvb2-77" target="b8lKw-kGKd8MyjRBLvb2-65" edge="1">
          <mxGeometry relative="1" as="geometry" />
        </mxCell>
        <mxCell id="NR2YaWxbIULWB_psVSaY-12" style="edgeStyle=orthogonalEdgeStyle;rounded=0;orthogonalLoop=1;jettySize=auto;html=1;" parent="1" source="b8lKw-kGKd8MyjRBLvb2-77" target="b8lKw-kGKd8MyjRBLvb2-75" edge="1">
          <mxGeometry relative="1" as="geometry" />
        </mxCell>
        <mxCell id="b8lKw-kGKd8MyjRBLvb2-77" value="Tipos_grados" style="rounded=0;whiteSpace=wrap;html=1;fillColor=#d80073;strokeColor=#A50040;fontColor=#ffffff;fontStyle=1" parent="1" vertex="1">
          <mxGeometry x="70" y="210" width="110" height="40" as="geometry" />
        </mxCell>
        <mxCell id="b8lKw-kGKd8MyjRBLvb2-78" value="Primaria&lt;br&gt;Secundaria&lt;br&gt;General&lt;br&gt;Tecnico&lt;br&gt;" style="text;html=1;strokeColor=none;fillColor=none;align=center;verticalAlign=middle;whiteSpace=wrap;rounded=0;" parent="1" vertex="1">
          <mxGeometry x="105" y="150" width="40" height="40" as="geometry" />
        </mxCell>
        <mxCell id="GyppBiyQgEA9VhqEIzXW-26" style="edgeStyle=orthogonalEdgeStyle;rounded=0;orthogonalLoop=1;jettySize=auto;html=1;exitX=0.5;exitY=1;exitDx=0;exitDy=0;fontSize=11;fontColor=#CC0000;" edge="1" parent="1" source="NR2YaWxbIULWB_psVSaY-3" target="GyppBiyQgEA9VhqEIzXW-19">
          <mxGeometry relative="1" as="geometry">
            <mxPoint x="135" y="680" as="targetPoint" />
          </mxGeometry>
        </mxCell>
        <mxCell id="NR2YaWxbIULWB_psVSaY-3" value="Horarios_materias" style="rounded=0;whiteSpace=wrap;html=1;fillColor=#d80073;strokeColor=#A50040;fontColor=#ffffff;fontStyle=1" parent="1" vertex="1">
          <mxGeometry x="80" y="580" width="110" height="40" as="geometry" />
        </mxCell>
        <mxCell id="GyppBiyQgEA9VhqEIzXW-17" value="" style="edgeStyle=orthogonalEdgeStyle;rounded=0;orthogonalLoop=1;jettySize=auto;html=1;" edge="1" parent="1" source="NR2YaWxbIULWB_psVSaY-4" target="b8lKw-kGKd8MyjRBLvb2-74">
          <mxGeometry relative="1" as="geometry" />
        </mxCell>
        <mxCell id="NR2YaWxbIULWB_psVSaY-4" value="Tipo_jornada" style="rounded=0;whiteSpace=wrap;html=1;fillColor=#d80073;strokeColor=#A50040;fontColor=#ffffff;fontStyle=1" parent="1" vertex="1">
          <mxGeometry x="-250" y="640" width="110" height="40" as="geometry" />
        </mxCell>
        <mxCell id="NR2YaWxbIULWB_psVSaY-5" value="Matutino&lt;br&gt;Vespertino&lt;br&gt;Nocturno" style="text;html=1;strokeColor=none;fillColor=none;align=center;verticalAlign=middle;whiteSpace=wrap;rounded=0;" parent="1" vertex="1">
          <mxGeometry x="-215" y="600" width="40" height="20" as="geometry" />
        </mxCell>
        <mxCell id="NR2YaWxbIULWB_psVSaY-16" value="Tipo_docente" style="rounded=0;whiteSpace=wrap;html=1;fillColor=#d80073;strokeColor=#A50040;fontColor=#ffffff;fontStyle=1" parent="1" vertex="1">
          <mxGeometry x="400" y="265" width="110" height="40" as="geometry" />
        </mxCell>
        <mxCell id="NR2YaWxbIULWB_psVSaY-17" value="Tiempo completo&lt;br&gt;Por hora clase" style="text;html=1;strokeColor=none;fillColor=none;align=center;verticalAlign=middle;whiteSpace=wrap;rounded=0;fontSize=12;" parent="1" vertex="1">
          <mxGeometry x="370" y="200" width="150" height="30" as="geometry" />
        </mxCell>
        <mxCell id="NR2YaWxbIULWB_psVSaY-18" value="Nuevo ingreso, reingreso" style="text;html=1;strokeColor=none;fillColor=none;align=center;verticalAlign=middle;whiteSpace=wrap;rounded=0;fontSize=12;" parent="1" vertex="1">
          <mxGeometry x="880" y="270" width="80" height="20" as="geometry" />
        </mxCell>
        <mxCell id="NR2YaWxbIULWB_psVSaY-27" value="" style="edgeStyle=orthogonalEdgeStyle;rounded=0;orthogonalLoop=1;jettySize=auto;html=1;fontSize=12;" parent="1" source="NR2YaWxbIULWB_psVSaY-19" target="NR2YaWxbIULWB_psVSaY-25" edge="1">
          <mxGeometry relative="1" as="geometry" />
        </mxCell>
        <mxCell id="GyppBiyQgEA9VhqEIzXW-3" style="edgeStyle=orthogonalEdgeStyle;rounded=0;orthogonalLoop=1;jettySize=auto;html=1;exitX=0.25;exitY=1;exitDx=0;exitDy=0;entryX=0.5;entryY=0;entryDx=0;entryDy=0;" parent="1" source="NR2YaWxbIULWB_psVSaY-19" target="b8lKw-kGKd8MyjRBLvb2-74" edge="1">
          <mxGeometry relative="1" as="geometry">
            <Array as="points">
              <mxPoint x="108" y="470" />
              <mxPoint x="-25" y="470" />
            </Array>
          </mxGeometry>
        </mxCell>
        <mxCell id="NR2YaWxbIULWB_psVSaY-19" value="Planes_academicos" style="rounded=0;whiteSpace=wrap;html=1;fillColor=#d80073;strokeColor=#A50040;fontColor=#ffffff;fontStyle=1;fontSize=11;" parent="1" vertex="1">
          <mxGeometry x="80" y="400" width="110" height="40" as="geometry" />
        </mxCell>
        <mxCell id="GyppBiyQgEA9VhqEIzXW-15" style="edgeStyle=orthogonalEdgeStyle;rounded=0;orthogonalLoop=1;jettySize=auto;html=1;exitX=0.5;exitY=1;exitDx=0;exitDy=0;entryX=0.5;entryY=0;entryDx=0;entryDy=0;" edge="1" parent="1" source="NR2YaWxbIULWB_psVSaY-25" target="NR2YaWxbIULWB_psVSaY-3">
          <mxGeometry relative="1" as="geometry" />
        </mxCell>
        <mxCell id="NR2YaWxbIULWB_psVSaY-25" value="Planes_detalles" style="rounded=0;whiteSpace=wrap;html=1;fillColor=#d80073;strokeColor=#A50040;fontColor=#ffffff;fontStyle=1" parent="1" vertex="1">
          <mxGeometry x="80" y="490" width="110" height="40" as="geometry" />
        </mxCell>
        <mxCell id="NR2YaWxbIULWB_psVSaY-28" value="" style="ellipse;whiteSpace=wrap;html=1;strokeColor=#A50040;fontColor=#ffffff;fillColor=#FFFFFF;" parent="1" vertex="1">
          <mxGeometry x="-140" y="300" width="20" height="10" as="geometry" />
        </mxCell>
        <mxCell id="NR2YaWxbIULWB_psVSaY-29" value="fk_id_responsable" style="text;html=1;strokeColor=none;fillColor=none;align=center;verticalAlign=middle;whiteSpace=wrap;rounded=0;fontSize=12;" parent="1" vertex="1">
          <mxGeometry x="-250" y="295" width="90" height="20" as="geometry" />
        </mxCell>
        <mxCell id="AFqO68eLZn9aOLBoOMBV-13" value="idResponsable" style="text;html=1;strokeColor=none;fillColor=none;align=center;verticalAlign=middle;whiteSpace=wrap;rounded=0;" parent="1" vertex="1">
          <mxGeometry x="758" y="216" width="80" height="20" as="geometry" />
        </mxCell>
        <mxCell id="AFqO68eLZn9aOLBoOMBV-14" value="" style="rounded=0;orthogonalLoop=1;jettySize=auto;html=1;fontSize=10;sketch=0;shadow=0;endArrow=none;endFill=0;entryX=1;entryY=0;entryDx=0;entryDy=0;" parent="1" source="AFqO68eLZn9aOLBoOMBV-39" target="b8lKw-kGKd8MyjRBLvb2-35" edge="1">
          <mxGeometry relative="1" as="geometry">
            <mxPoint x="740" y="230" as="sourcePoint" />
            <mxPoint x="689.86" y="247.19739130434786" as="targetPoint" />
          </mxGeometry>
        </mxCell>
        <mxCell id="AFqO68eLZn9aOLBoOMBV-19" value="nombre" style="text;html=1;strokeColor=none;fillColor=none;align=center;verticalAlign=middle;whiteSpace=wrap;rounded=0;" parent="1" vertex="1">
          <mxGeometry x="749" y="240" width="80" height="20" as="geometry" />
        </mxCell>
        <mxCell id="AFqO68eLZn9aOLBoOMBV-20" value="Apellido" style="text;html=1;strokeColor=none;fillColor=none;align=center;verticalAlign=middle;whiteSpace=wrap;rounded=0;" parent="1" vertex="1">
          <mxGeometry x="750" y="255" width="80" height="20" as="geometry" />
        </mxCell>
        <mxCell id="AFqO68eLZn9aOLBoOMBV-21" value="Fecha_Nacimiento" style="text;html=1;strokeColor=none;fillColor=none;align=center;verticalAlign=middle;whiteSpace=wrap;rounded=0;" parent="1" vertex="1">
          <mxGeometry x="745" y="295" width="80" height="20" as="geometry" />
        </mxCell>
        <mxCell id="AFqO68eLZn9aOLBoOMBV-25" value="" style="edgeStyle=none;rounded=0;sketch=0;orthogonalLoop=1;jettySize=auto;html=1;shadow=0;endArrow=none;endFill=0;fontSize=10;entryX=1;entryY=0.25;entryDx=0;entryDy=0;" parent="1" edge="1" target="b8lKw-kGKd8MyjRBLvb2-35" source="cweQKclYi54O8DaWh0Qv-15">
          <mxGeometry relative="1" as="geometry">
            <mxPoint x="746" y="246" as="sourcePoint" />
            <mxPoint x="690" y="240" as="targetPoint" />
          </mxGeometry>
        </mxCell>
        <mxCell id="GyppBiyQgEA9VhqEIzXW-11" style="edgeStyle=orthogonalEdgeStyle;rounded=0;orthogonalLoop=1;jettySize=auto;html=1;exitX=0.25;exitY=1;exitDx=0;exitDy=0;entryX=1;entryY=0.5;entryDx=0;entryDy=0;" edge="1" parent="1" source="GyppBiyQgEA9VhqEIzXW-7" target="NR2YaWxbIULWB_psVSaY-3">
          <mxGeometry relative="1" as="geometry" />
        </mxCell>
        <mxCell id="AFqO68eLZn9aOLBoOMBV-29" value="" style="edgeStyle=none;rounded=0;sketch=0;orthogonalLoop=1;jettySize=auto;html=1;shadow=0;endArrow=none;endFill=0;fontSize=10;exitX=0;exitY=0.5;exitDx=0;exitDy=0;entryX=1;entryY=0.5;entryDx=0;entryDy=0;" parent="1" target="b8lKw-kGKd8MyjRBLvb2-35" edge="1">
          <mxGeometry relative="1" as="geometry">
            <mxPoint x="750" y="265" as="sourcePoint" />
            <mxPoint x="689.98" y="263.86130434782615" as="targetPoint" />
          </mxGeometry>
        </mxCell>
        <mxCell id="GyppBiyQgEA9VhqEIzXW-7" value="Dcn_materias" style="rounded=0;whiteSpace=wrap;html=1;fillColor=#d80073;strokeColor=#A50040;fontColor=#ffffff;fontStyle=1" vertex="1" parent="1">
          <mxGeometry x="292.5" y="460" width="110" height="40" as="geometry" />
        </mxCell>
        <mxCell id="AFqO68eLZn9aOLBoOMBV-32" value="" style="edgeStyle=none;rounded=0;sketch=0;orthogonalLoop=1;jettySize=auto;html=1;shadow=0;endArrow=none;endFill=0;fontSize=10;exitX=0;exitY=0;exitDx=0;exitDy=0;" parent="1" edge="1" target="b8lKw-kGKd8MyjRBLvb2-35">
          <mxGeometry relative="1" as="geometry">
            <mxPoint x="732.9289321881347" y="281.46446609406735" as="sourcePoint" />
            <mxPoint x="690" y="260" as="targetPoint" />
          </mxGeometry>
        </mxCell>
        <mxCell id="GyppBiyQgEA9VhqEIzXW-18" value="Diagrama para control de notas de colegios" style="text;html=1;align=left;verticalAlign=middle;whiteSpace=wrap;rounded=0;fontStyle=5;fontSize=24;labelBorderColor=none;labelBackgroundColor=none;fontColor=#CC0000;" vertex="1" parent="1">
          <mxGeometry x="-100" y="25" width="570" height="20" as="geometry" />
        </mxCell>
        <mxCell id="AFqO68eLZn9aOLBoOMBV-33" value="" style="edgeStyle=none;rounded=0;sketch=0;orthogonalLoop=1;jettySize=auto;html=1;shadow=0;endArrow=none;endFill=0;fontSize=10;" parent="1" target="b8lKw-kGKd8MyjRBLvb2-35" edge="1">
          <mxGeometry relative="1" as="geometry">
            <mxPoint x="720" y="300" as="sourcePoint" />
            <mxPoint x="700" y="270" as="targetPoint" />
          </mxGeometry>
        </mxCell>
        <mxCell id="AFqO68eLZn9aOLBoOMBV-39" value="" style="ellipse;whiteSpace=wrap;html=1;strokeColor=#A50040;fontColor=#ffffff;fillColor=#d80073;" parent="1" vertex="1">
          <mxGeometry x="730" y="225" width="20" height="10" as="geometry" />
        </mxCell>
        <mxCell id="GyppBiyQgEA9VhqEIzXW-19" value="Alums_detalles_notas" style="rounded=0;whiteSpace=wrap;html=1;fillColor=#d80073;strokeColor=#A50040;fontColor=#ffffff;fontStyle=1;labelPosition=center;verticalLabelPosition=middle;align=center;verticalAlign=middle;fontSize=10;" vertex="1" parent="1">
          <mxGeometry x="80" y="660" width="110" height="40" as="geometry" />
        </mxCell>
        <mxCell id="AFqO68eLZn9aOLBoOMBV-55" value="parentesco" style="text;html=1;strokeColor=none;fillColor=none;align=center;verticalAlign=middle;whiteSpace=wrap;rounded=0;" parent="1" vertex="1">
          <mxGeometry x="745" y="270" width="80" height="20" as="geometry" />
        </mxCell>
        <mxCell id="cweQKclYi54O8DaWh0Qv-1" value="" style="edgeStyle=none;rounded=0;sketch=0;orthogonalLoop=1;jettySize=auto;html=1;shadow=0;endArrow=none;endFill=0;fontSize=10;entryX=1;entryY=0.25;entryDx=0;entryDy=0;exitX=0;exitY=0.5;exitDx=0;exitDy=0;" edge="1" parent="1" source="b8lKw-kGKd8MyjRBLvb2-62" target="4XaMbFRDXjhc7i4ORzib-2">
          <mxGeometry relative="1" as="geometry">
            <mxPoint x="729" y="140" as="sourcePoint" />
            <mxPoint x="690" y="148" as="targetPoint" />
          </mxGeometry>
        </mxCell>
        <mxCell id="cweQKclYi54O8DaWh0Qv-2" value="" style="edgeStyle=none;rounded=0;sketch=0;orthogonalLoop=1;jettySize=auto;html=1;shadow=0;endArrow=none;endFill=0;fontSize=10;exitX=0;exitY=0.25;exitDx=0;exitDy=0;" edge="1" parent="1" source="cweQKclYi54O8DaWh0Qv-28">
          <mxGeometry relative="1" as="geometry">
            <mxPoint x="740" y="140" as="sourcePoint" />
            <mxPoint x="690" y="135" as="targetPoint" />
          </mxGeometry>
        </mxCell>
        <mxCell id="cweQKclYi54O8DaWh0Qv-9" value="" style="edgeStyle=none;rounded=0;sketch=0;orthogonalLoop=1;jettySize=auto;html=1;shadow=0;endArrow=none;endFill=0;fontSize=10;entryX=1;entryY=0.5;entryDx=0;entryDy=0;" edge="1" parent="1" target="4XaMbFRDXjhc7i4ORzib-2">
          <mxGeometry relative="1" as="geometry">
            <mxPoint x="750" y="120" as="sourcePoint" />
            <mxPoint x="687.07" y="153.54" as="targetPoint" />
          </mxGeometry>
        </mxCell>
        <mxCell id="cweQKclYi54O8DaWh0Qv-11" value="Nombre" style="text;html=1;strokeColor=none;fillColor=none;align=center;verticalAlign=middle;whiteSpace=wrap;rounded=0;" vertex="1" parent="1">
          <mxGeometry x="760" y="110" width="60" height="20" as="geometry" />
        </mxCell>
        <mxCell id="cweQKclYi54O8DaWh0Qv-14" value="" style="ellipse;whiteSpace=wrap;html=1;strokeColor=#A50040;fontColor=#ffffff;fillColor=#FFFFFF;" vertex="1" parent="1">
          <mxGeometry x="745" y="115" width="20" height="10" as="geometry" />
        </mxCell>
        <mxCell id="cweQKclYi54O8DaWh0Qv-15" value="" style="ellipse;whiteSpace=wrap;html=1;strokeColor=#A50040;fontColor=#ffffff;fillColor=#FFFFFF;" vertex="1" parent="1">
          <mxGeometry x="740" y="240" width="20" height="10" as="geometry" />
        </mxCell>
        <mxCell id="cweQKclYi54O8DaWh0Qv-22" value="" style="ellipse;whiteSpace=wrap;html=1;strokeColor=#A50040;fontColor=#ffffff;fillColor=#FFFFFF;" vertex="1" parent="1">
          <mxGeometry x="745" y="260" width="20" height="10" as="geometry" />
        </mxCell>
        <mxCell id="cweQKclYi54O8DaWh0Qv-23" value="" style="ellipse;whiteSpace=wrap;html=1;strokeColor=#A50040;fontColor=#ffffff;fillColor=#FFFFFF;" vertex="1" parent="1">
          <mxGeometry x="730" y="275" width="20" height="10" as="geometry" />
        </mxCell>
        <mxCell id="cweQKclYi54O8DaWh0Qv-24" value="" style="ellipse;whiteSpace=wrap;html=1;strokeColor=#A50040;fontColor=#ffffff;fillColor=#FFFFFF;" vertex="1" parent="1">
          <mxGeometry x="710" y="295" width="20" height="10" as="geometry" />
        </mxCell>
        <mxCell id="cweQKclYi54O8DaWh0Qv-27" value="" style="ellipse;whiteSpace=wrap;html=1;strokeColor=#A50040;fontColor=#ffffff;fillColor=#FFFFFF;" vertex="1" parent="1">
          <mxGeometry x="740" y="150" width="20" height="10" as="geometry" />
        </mxCell>
        <mxCell id="cweQKclYi54O8DaWh0Qv-28" value="Apellido" style="text;html=1;strokeColor=none;fillColor=none;align=center;verticalAlign=middle;whiteSpace=wrap;rounded=0;" vertex="1" parent="1">
          <mxGeometry x="750" y="130" width="80" height="20" as="geometry" />
        </mxCell>
        <mxCell id="cweQKclYi54O8DaWh0Qv-39" value="" style="edgeStyle=none;rounded=0;sketch=0;orthogonalLoop=1;jettySize=auto;html=1;shadow=0;endArrow=none;endFill=0;fontSize=10;exitX=0;exitY=1;exitDx=0;exitDy=0;" edge="1" parent="1" source="cweQKclYi54O8DaWh0Qv-28" target="4XaMbFRDXjhc7i4ORzib-2">
          <mxGeometry relative="1" as="geometry">
            <mxPoint x="750" y="177" as="sourcePoint" />
            <mxPoint x="700" y="170" as="targetPoint" />
          </mxGeometry>
        </mxCell>
        <mxCell id="cweQKclYi54O8DaWh0Qv-41" value="Pasword" style="text;html=1;strokeColor=none;fillColor=none;align=center;verticalAlign=middle;whiteSpace=wrap;rounded=0;" vertex="1" parent="1">
          <mxGeometry x="745" y="150" width="80" height="20" as="geometry" />
        </mxCell>
        <mxCell id="cweQKclYi54O8DaWh0Qv-42" value="" style="edgeStyle=none;rounded=0;sketch=0;orthogonalLoop=1;jettySize=auto;html=1;shadow=0;endArrow=none;endFill=0;fontSize=10;entryX=0.836;entryY=0.975;entryDx=0;entryDy=0;entryPerimeter=0;" edge="1" parent="1" target="4XaMbFRDXjhc7i4ORzib-2">
          <mxGeometry relative="1" as="geometry">
            <mxPoint x="740" y="170" as="sourcePoint" />
            <mxPoint x="700" y="160" as="targetPoint" />
          </mxGeometry>
        </mxCell>
        <mxCell id="cweQKclYi54O8DaWh0Qv-44" value="Email" style="text;html=1;strokeColor=none;fillColor=none;align=center;verticalAlign=middle;whiteSpace=wrap;rounded=0;" vertex="1" parent="1">
          <mxGeometry x="738" y="165" width="80" height="20" as="geometry" />
        </mxCell>
        <mxCell id="cweQKclYi54O8DaWh0Qv-45" value="" style="ellipse;whiteSpace=wrap;html=1;strokeColor=#A50040;fontColor=#ffffff;fillColor=#FFFFFF;" vertex="1" parent="1">
          <mxGeometry x="738" y="170" width="20" height="10" as="geometry" />
        </mxCell>
        <mxCell id="b8lKw-kGKd8MyjRBLvb2-62" value="" style="ellipse;whiteSpace=wrap;html=1;strokeColor=#A50040;fontColor=#ffffff;fillColor=#d80073;" parent="1" vertex="1">
          <mxGeometry x="745" y="95" width="20" height="10" as="geometry" />
        </mxCell>
        <mxCell id="cweQKclYi54O8DaWh0Qv-48" value="" style="edgeStyle=none;rounded=0;sketch=0;orthogonalLoop=1;jettySize=auto;html=1;shadow=0;endArrow=none;endFill=0;fontSize=10;entryX=1;entryY=0.25;entryDx=0;entryDy=0;exitX=0;exitY=0.5;exitDx=0;exitDy=0;" edge="1" parent="1" source="b8lKw-kGKd8MyjRBLvb2-61" target="b8lKw-kGKd8MyjRBLvb2-62">
          <mxGeometry relative="1" as="geometry">
            <mxPoint x="764" y="100" as="sourcePoint" />
            <mxPoint x="690" y="110" as="targetPoint" />
          </mxGeometry>
        </mxCell>
        <mxCell id="cweQKclYi54O8DaWh0Qv-61" value="" style="edgeStyle=none;rounded=0;sketch=0;orthogonalLoop=1;jettySize=auto;html=1;shadow=0;endArrow=none;endFill=0;fontSize=10;entryX=0.75;entryY=1;entryDx=0;entryDy=0;" edge="1" parent="1" target="4XaMbFRDXjhc7i4ORzib-2">
          <mxGeometry relative="1" as="geometry">
            <mxPoint x="710" y="180" as="sourcePoint" />
            <mxPoint x="681.96" y="149" as="targetPoint" />
          </mxGeometry>
        </mxCell>
        <mxCell id="cweQKclYi54O8DaWh0Qv-62" value="" style="ellipse;whiteSpace=wrap;html=1;strokeColor=#A50040;fontColor=#ffffff;fillColor=#FFFFFF;" vertex="1" parent="1">
          <mxGeometry x="700" y="175" width="20" height="10" as="geometry" />
        </mxCell>
        <mxCell id="cweQKclYi54O8DaWh0Qv-63" value="Estatus" style="text;html=1;strokeColor=none;fillColor=none;align=center;verticalAlign=middle;whiteSpace=wrap;rounded=0;" vertex="1" parent="1">
          <mxGeometry x="700" y="180" width="80" height="20" as="geometry" />
        </mxCell>
        <mxCell id="cweQKclYi54O8DaWh0Qv-66" value="" style="rounded=0;orthogonalLoop=1;jettySize=auto;html=1;fontSize=10;sketch=0;shadow=0;endArrow=none;endFill=0;entryX=1;entryY=0.25;entryDx=0;entryDy=0;" edge="1" parent="1" target="b8lKw-kGKd8MyjRBLvb2-47">
          <mxGeometry relative="1" as="geometry">
            <mxPoint x="720" y="368" as="sourcePoint" />
            <mxPoint x="669.49" y="368.42" as="targetPoint" />
          </mxGeometry>
        </mxCell>
        <mxCell id="cweQKclYi54O8DaWh0Qv-67" value="" style="ellipse;whiteSpace=wrap;html=1;strokeColor=#A50040;fontColor=#ffffff;fillColor=#d80073;" vertex="1" parent="1">
          <mxGeometry x="711" y="362" width="20" height="10" as="geometry" />
        </mxCell>
        <mxCell id="cweQKclYi54O8DaWh0Qv-68" value="Id_Docente" style="text;html=1;strokeColor=none;fillColor=none;align=center;verticalAlign=middle;whiteSpace=wrap;rounded=0;" vertex="1" parent="1">
          <mxGeometry x="730" y="360" width="80" height="20" as="geometry" />
        </mxCell>
        <mxCell id="cweQKclYi54O8DaWh0Qv-70" value="" style="rounded=0;orthogonalLoop=1;jettySize=auto;html=1;fontSize=10;sketch=0;shadow=0;endArrow=none;endFill=0;entryX=1;entryY=0.5;entryDx=0;entryDy=0;" edge="1" parent="1" target="b8lKw-kGKd8MyjRBLvb2-47">
          <mxGeometry relative="1" as="geometry">
            <mxPoint x="720" y="380" as="sourcePoint" />
            <mxPoint x="679.4899999999998" y="378.4200000000001" as="targetPoint" />
          </mxGeometry>
        </mxCell>
        <mxCell id="cweQKclYi54O8DaWh0Qv-71" value="" style="ellipse;whiteSpace=wrap;html=1;strokeColor=#A50040;fontColor=#ffffff;fillColor=#FFFFFF;" vertex="1" parent="1">
          <mxGeometry x="718" y="375" width="20" height="10" as="geometry" />
        </mxCell>
        <mxCell id="cweQKclYi54O8DaWh0Qv-72" value="Dui" style="text;html=1;strokeColor=none;fillColor=none;align=center;verticalAlign=middle;whiteSpace=wrap;rounded=0;" vertex="1" parent="1">
          <mxGeometry x="711" y="375" width="80" height="20" as="geometry" />
        </mxCell>
        <mxCell id="cweQKclYi54O8DaWh0Qv-73" value="" style="rounded=0;orthogonalLoop=1;jettySize=auto;html=1;fontSize=10;sketch=0;shadow=0;endArrow=none;endFill=0;entryX=1;entryY=0.75;entryDx=0;entryDy=0;" edge="1" parent="1" target="b8lKw-kGKd8MyjRBLvb2-47">
          <mxGeometry relative="1" as="geometry">
            <mxPoint x="720" y="400" as="sourcePoint" />
            <mxPoint x="689.4899999999998" y="388.4200000000001" as="targetPoint" />
          </mxGeometry>
        </mxCell>
        <mxCell id="cweQKclYi54O8DaWh0Qv-76" value="" style="ellipse;whiteSpace=wrap;html=1;strokeColor=#A50040;fontColor=#ffffff;fillColor=#FFFFFF;" vertex="1" parent="1">
          <mxGeometry x="711" y="395" width="20" height="10" as="geometry" />
        </mxCell>
        <mxCell id="cweQKclYi54O8DaWh0Qv-77" value="Nombre" style="text;html=1;strokeColor=none;fillColor=none;align=center;verticalAlign=middle;whiteSpace=wrap;rounded=0;" vertex="1" parent="1">
          <mxGeometry x="720" y="390" width="80" height="20" as="geometry" />
        </mxCell>
        <mxCell id="cweQKclYi54O8DaWh0Qv-80" value="" style="rounded=0;orthogonalLoop=1;jettySize=auto;html=1;fontSize=10;sketch=0;shadow=0;endArrow=none;endFill=0;entryX=1;entryY=1;entryDx=0;entryDy=0;" edge="1" parent="1" target="b8lKw-kGKd8MyjRBLvb2-47">
          <mxGeometry relative="1" as="geometry">
            <mxPoint x="720" y="420" as="sourcePoint" />
            <mxPoint x="690" y="400" as="targetPoint" />
          </mxGeometry>
        </mxCell>
        <mxCell id="cweQKclYi54O8DaWh0Qv-82" value="Apellido" style="text;html=1;strokeColor=none;fillColor=none;align=center;verticalAlign=middle;whiteSpace=wrap;rounded=0;" vertex="1" parent="1">
          <mxGeometry x="715" y="410" width="80" height="20" as="geometry" />
        </mxCell>
        <mxCell id="cweQKclYi54O8DaWh0Qv-84" value="" style="ellipse;whiteSpace=wrap;html=1;strokeColor=#A50040;fontColor=#ffffff;fillColor=#FFFFFF;" vertex="1" parent="1">
          <mxGeometry x="710" y="415" width="20" height="10" as="geometry" />
        </mxCell>
        <mxCell id="cweQKclYi54O8DaWh0Qv-85" value="" style="rounded=0;orthogonalLoop=1;jettySize=auto;html=1;fontSize=10;sketch=0;shadow=0;endArrow=none;endFill=0;entryX=0.882;entryY=0.975;entryDx=0;entryDy=0;entryPerimeter=0;" edge="1" parent="1" target="b8lKw-kGKd8MyjRBLvb2-47">
          <mxGeometry relative="1" as="geometry">
            <mxPoint x="730" y="440" as="sourcePoint" />
            <mxPoint x="690" y="410" as="targetPoint" />
          </mxGeometry>
        </mxCell>
        <mxCell id="cweQKclYi54O8DaWh0Qv-86" value="Telefono" style="text;html=1;strokeColor=none;fillColor=none;align=center;verticalAlign=middle;whiteSpace=wrap;rounded=0;" vertex="1" parent="1">
          <mxGeometry x="720" y="430" width="80" height="20" as="geometry" />
        </mxCell>
        <mxCell id="cweQKclYi54O8DaWh0Qv-87" value="" style="ellipse;whiteSpace=wrap;html=1;strokeColor=#A50040;fontColor=#ffffff;fillColor=#FFFFFF;" vertex="1" parent="1">
          <mxGeometry x="715" y="435" width="20" height="10" as="geometry" />
        </mxCell>
        <mxCell id="cweQKclYi54O8DaWh0Qv-88" value="" style="rounded=0;orthogonalLoop=1;jettySize=auto;html=1;fontSize=10;sketch=0;shadow=0;endArrow=none;endFill=0;entryX=0.75;entryY=1;entryDx=0;entryDy=0;exitX=0;exitY=1;exitDx=0;exitDy=0;" edge="1" parent="1" source="cweQKclYi54O8DaWh0Qv-86" target="b8lKw-kGKd8MyjRBLvb2-47">
          <mxGeometry relative="1" as="geometry">
            <mxPoint x="740" y="450" as="sourcePoint" />
            <mxPoint x="667.02" y="419" as="targetPoint" />
          </mxGeometry>
        </mxCell>
        <mxCell id="cweQKclYi54O8DaWh0Qv-89" value="Direccion" style="text;html=1;strokeColor=none;fillColor=none;align=center;verticalAlign=middle;whiteSpace=wrap;rounded=0;" vertex="1" parent="1">
          <mxGeometry x="720" y="445" width="80" height="20" as="geometry" />
        </mxCell>
        <mxCell id="cweQKclYi54O8DaWh0Qv-90" value="" style="ellipse;whiteSpace=wrap;html=1;strokeColor=#A50040;fontColor=#ffffff;fillColor=#FFFFFF;" vertex="1" parent="1">
          <mxGeometry x="710" y="450" width="20" height="10" as="geometry" />
        </mxCell>
        <mxCell id="cweQKclYi54O8DaWh0Qv-91" value="" style="rounded=0;orthogonalLoop=1;jettySize=auto;html=1;fontSize=10;sketch=0;shadow=0;endArrow=none;endFill=0;" edge="1" parent="1" target="b8lKw-kGKd8MyjRBLvb2-47">
          <mxGeometry relative="1" as="geometry">
            <mxPoint x="680" y="450" as="sourcePoint" />
            <mxPoint x="652.5" y="420" as="targetPoint" />
          </mxGeometry>
        </mxCell>
        <mxCell id="cweQKclYi54O8DaWh0Qv-92" value="" style="ellipse;whiteSpace=wrap;html=1;strokeColor=#A50040;fontColor=#ffffff;fillColor=#FFFFFF;" vertex="1" parent="1">
          <mxGeometry x="680" y="450" width="20" height="10" as="geometry" />
        </mxCell>
        <mxCell id="cweQKclYi54O8DaWh0Qv-93" value="Email" style="text;html=1;strokeColor=none;fillColor=none;align=center;verticalAlign=middle;whiteSpace=wrap;rounded=0;" vertex="1" parent="1">
          <mxGeometry x="655" y="460" width="80" height="20" as="geometry" />
        </mxCell>
        <mxCell id="cweQKclYi54O8DaWh0Qv-94" style="edgeStyle=orthogonalEdgeStyle;rounded=0;orthogonalLoop=1;jettySize=auto;html=1;exitX=0.5;exitY=1;exitDx=0;exitDy=0;" edge="1" parent="1" source="cweQKclYi54O8DaWh0Qv-93" target="cweQKclYi54O8DaWh0Qv-93">
          <mxGeometry relative="1" as="geometry" />
        </mxCell>
        <mxCell id="cweQKclYi54O8DaWh0Qv-111" value="" style="ellipse;whiteSpace=wrap;html=1;strokeColor=#A50040;fontColor=#ffffff;fillColor=#d80073;" vertex="1" parent="1">
          <mxGeometry x="680" y="560" width="20" height="10" as="geometry" />
        </mxCell>
        <mxCell id="cweQKclYi54O8DaWh0Qv-112" value="" style="rounded=0;orthogonalLoop=1;jettySize=auto;html=1;fontSize=10;sketch=0;shadow=0;endArrow=none;endFill=0;" edge="1" parent="1">
          <mxGeometry relative="1" as="geometry">
            <mxPoint x="680" y="570" as="sourcePoint" />
            <mxPoint x="650" y="580" as="targetPoint" />
          </mxGeometry>
        </mxCell>
        <mxCell id="cweQKclYi54O8DaWh0Qv-115" value="" style="rounded=0;orthogonalLoop=1;jettySize=auto;html=1;fontSize=10;sketch=0;shadow=0;endArrow=none;endFill=0;entryX=1;entryY=0.5;entryDx=0;entryDy=0;" edge="1" parent="1" target="b8lKw-kGKd8MyjRBLvb2-48">
          <mxGeometry relative="1" as="geometry">
            <mxPoint x="700" y="580" as="sourcePoint" />
            <mxPoint x="660" y="430" as="targetPoint" />
          </mxGeometry>
        </mxCell>
        <mxCell id="cweQKclYi54O8DaWh0Qv-116" value="" style="ellipse;whiteSpace=wrap;html=1;strokeColor=#A50040;fontColor=#ffffff;fillColor=#FFFFFF;" vertex="1" parent="1">
          <mxGeometry x="700" y="570" width="20" height="10" as="geometry" />
        </mxCell>
        <mxCell id="cweQKclYi54O8DaWh0Qv-117" value="" style="rounded=0;orthogonalLoop=1;jettySize=auto;html=1;fontSize=10;sketch=0;shadow=0;endArrow=none;endFill=0;entryX=1;entryY=0.75;entryDx=0;entryDy=0;" edge="1" parent="1" target="b8lKw-kGKd8MyjRBLvb2-48">
          <mxGeometry relative="1" as="geometry">
            <mxPoint x="710" y="590" as="sourcePoint" />
            <mxPoint x="660" y="600" as="targetPoint" />
          </mxGeometry>
        </mxCell>
        <mxCell id="cweQKclYi54O8DaWh0Qv-118" value="" style="ellipse;whiteSpace=wrap;html=1;strokeColor=#A50040;fontColor=#ffffff;fillColor=#FFFFFF;" vertex="1" parent="1">
          <mxGeometry x="710" y="585" width="20" height="10" as="geometry" />
        </mxCell>
        <mxCell id="cweQKclYi54O8DaWh0Qv-119" value="" style="rounded=0;orthogonalLoop=1;jettySize=auto;html=1;fontSize=10;sketch=0;shadow=0;endArrow=none;endFill=0;" edge="1" parent="1">
          <mxGeometry relative="1" as="geometry">
            <mxPoint x="700" y="610" as="sourcePoint" />
            <mxPoint x="640" y="600" as="targetPoint" />
          </mxGeometry>
        </mxCell>
        <mxCell id="cweQKclYi54O8DaWh0Qv-120" value="" style="ellipse;whiteSpace=wrap;html=1;strokeColor=#A50040;fontColor=#ffffff;fillColor=#FFFFFF;" vertex="1" parent="1">
          <mxGeometry x="700" y="605" width="20" height="10" as="geometry" />
        </mxCell>
        <mxCell id="cweQKclYi54O8DaWh0Qv-121" value="" style="rounded=0;orthogonalLoop=1;jettySize=auto;html=1;fontSize=10;sketch=0;shadow=0;endArrow=none;endFill=0;" edge="1" parent="1">
          <mxGeometry relative="1" as="geometry">
            <mxPoint x="700" y="630" as="sourcePoint" />
            <mxPoint x="650" y="610" as="targetPoint" />
          </mxGeometry>
        </mxCell>
        <mxCell id="cweQKclYi54O8DaWh0Qv-122" value="" style="ellipse;whiteSpace=wrap;html=1;strokeColor=#A50040;fontColor=#ffffff;fillColor=#FFFFFF;" vertex="1" parent="1">
          <mxGeometry x="700" y="630" width="20" height="10" as="geometry" />
        </mxCell>
        <mxCell id="cweQKclYi54O8DaWh0Qv-125" value="Id_Alumno" style="text;html=1;strokeColor=none;fillColor=none;align=center;verticalAlign=middle;whiteSpace=wrap;rounded=0;" vertex="1" parent="1">
          <mxGeometry x="698" y="550" width="80" height="20" as="geometry" />
        </mxCell>
        <mxCell id="cweQKclYi54O8DaWh0Qv-126" value="Dui" style="text;html=1;strokeColor=none;fillColor=none;align=center;verticalAlign=middle;whiteSpace=wrap;rounded=0;" vertex="1" parent="1">
          <mxGeometry x="690" y="565" width="80" height="20" as="geometry" />
        </mxCell>
        <mxCell id="cweQKclYi54O8DaWh0Qv-127" value="Nombre" style="text;html=1;strokeColor=none;fillColor=none;align=center;verticalAlign=middle;whiteSpace=wrap;rounded=0;" vertex="1" parent="1">
          <mxGeometry x="715" y="580" width="80" height="20" as="geometry" />
        </mxCell>
        <mxCell id="cweQKclYi54O8DaWh0Qv-128" value="Apellido" style="text;html=1;strokeColor=none;fillColor=none;align=center;verticalAlign=middle;whiteSpace=wrap;rounded=0;" vertex="1" parent="1">
          <mxGeometry x="708" y="600" width="80" height="20" as="geometry" />
        </mxCell>
        <mxCell id="cweQKclYi54O8DaWh0Qv-131" value="Genero" style="text;html=1;strokeColor=none;fillColor=none;align=center;verticalAlign=middle;whiteSpace=wrap;rounded=0;" vertex="1" parent="1">
          <mxGeometry x="711" y="620" width="80" height="20" as="geometry" />
        </mxCell>
        <mxCell id="cweQKclYi54O8DaWh0Qv-132" value="" style="rounded=0;orthogonalLoop=1;jettySize=auto;html=1;fontSize=10;sketch=0;shadow=0;endArrow=none;endFill=0;" edge="1" parent="1" target="b8lKw-kGKd8MyjRBLvb2-48">
          <mxGeometry relative="1" as="geometry">
            <mxPoint x="700" y="650" as="sourcePoint" />
            <mxPoint x="660" y="620" as="targetPoint" />
          </mxGeometry>
        </mxCell>
        <mxCell id="cweQKclYi54O8DaWh0Qv-133" value="Fecha" style="text;html=1;strokeColor=none;fillColor=none;align=center;verticalAlign=middle;whiteSpace=wrap;rounded=0;" vertex="1" parent="1">
          <mxGeometry x="700" y="650" width="80" height="20" as="geometry" />
        </mxCell>
        <mxCell id="cweQKclYi54O8DaWh0Qv-134" value="" style="ellipse;whiteSpace=wrap;html=1;strokeColor=#A50040;fontColor=#ffffff;fillColor=#FFFFFF;" vertex="1" parent="1">
          <mxGeometry x="700" y="650" width="20" height="10" as="geometry" />
        </mxCell>
        <mxCell id="cweQKclYi54O8DaWh0Qv-135" value="" style="rounded=0;orthogonalLoop=1;jettySize=auto;html=1;fontSize=10;sketch=0;shadow=0;endArrow=none;endFill=0;entryX=0.75;entryY=1;entryDx=0;entryDy=0;exitX=0.25;exitY=0;exitDx=0;exitDy=0;" edge="1" parent="1" source="cweQKclYi54O8DaWh0Qv-136" target="b8lKw-kGKd8MyjRBLvb2-48">
          <mxGeometry relative="1" as="geometry">
            <mxPoint x="690" y="670" as="sourcePoint" />
            <mxPoint x="640" y="620" as="targetPoint" />
          </mxGeometry>
        </mxCell>
        <mxCell id="cweQKclYi54O8DaWh0Qv-136" value="Telefono" style="text;html=1;strokeColor=none;fillColor=none;align=center;verticalAlign=middle;whiteSpace=wrap;rounded=0;" vertex="1" parent="1">
          <mxGeometry x="708" y="680" width="80" height="20" as="geometry" />
        </mxCell>
        <mxCell id="cweQKclYi54O8DaWh0Qv-137" value="" style="rounded=0;orthogonalLoop=1;jettySize=auto;html=1;fontSize=10;sketch=0;shadow=0;endArrow=none;endFill=0;exitX=0.5;exitY=1;exitDx=0;exitDy=0;" edge="1" parent="1" source="cweQKclYi54O8DaWh0Qv-140" target="b8lKw-kGKd8MyjRBLvb2-48">
          <mxGeometry relative="1" as="geometry">
            <mxPoint x="670" y="690" as="sourcePoint" />
            <mxPoint x="602.5" y="630" as="targetPoint" />
          </mxGeometry>
        </mxCell>
        <mxCell id="cweQKclYi54O8DaWh0Qv-138" value="Direccion" style="text;html=1;strokeColor=none;fillColor=none;align=center;verticalAlign=middle;whiteSpace=wrap;rounded=0;" vertex="1" parent="1">
          <mxGeometry x="651" y="695" width="80" height="20" as="geometry" />
        </mxCell>
        <mxCell id="cweQKclYi54O8DaWh0Qv-139" value="" style="ellipse;whiteSpace=wrap;html=1;strokeColor=#A50040;fontColor=#ffffff;fillColor=#FFFFFF;" vertex="1" parent="1">
          <mxGeometry x="710" y="675" width="20" height="10" as="geometry" />
        </mxCell>
        <mxCell id="cweQKclYi54O8DaWh0Qv-140" value="" style="ellipse;whiteSpace=wrap;html=1;strokeColor=#A50040;fontColor=#ffffff;fillColor=#FFFFFF;" vertex="1" parent="1">
          <mxGeometry x="678" y="685" width="20" height="10" as="geometry" />
        </mxCell>
      </root>
    </mxGraphModel>
  </diagram>
</mxfile>
